# xmcd
#
# Track frame offsets:
#	150
#	11515
#	25242
#	34840
#	49237
#	67087
#	75755
#	88700
#	98622
#	117392
#
# Disc length: 1821 seconds
#
# Revision: 0
# Processed by: cddbd v1.5.2PL0 Copyright (c) Steve Scherf et al.
# Submitted via: EasyCDDAExtractor 10.2.0.1
#
DISCID=73071b0a
DTITLE=The Bush Family - Nothing's Impossible
DYEAR=1997
DGENRE=Gospel
TTITLE0=Nothing's Impossible
TTITLE1=The Only Thing I Want To Be
TTITLE2=I Can Hardly Wait
TTITLE3=Those We Love
TTITLE4=If I Never Speak His Name
TTITLE5=No Not One
TTITLE6=The Gospel News
TTITLE7=Nothing But The Blood
TTITLE8=I'll Never Be Lonely
TTITLE9=Wonderful Peace
EXTD=
EXTT0=
EXTT1=
EXTT2=
EXTT3=
EXTT4=
EXTT5=
EXTT6=
EXTT7=
EXTT8=
EXTT9=
PLAYORDER=
